0
SECTION
2
HEADER
9
$INSUNITS
70
1
9
$ACADVER
1
AC1014
9
$HANDSEED
5
FFFF
0
ENDSEC
0
SECTION
2
TABLES
0
TABLE
2
VPORT
5
8
100
AcDbSymbolTable
0
ENDTAB
0
TABLE
2
LTYPE
5
5
100
AcDbSymbolTable
0
LTYPE
5
14
100
AcDbSymbolTableRecord
100
AcDbLinetypeTableRecord
2
BYBLOCK
70
0
0
LTYPE
5
15
100
AcDbSymbolTableRecord
100
AcDbLinetypeTableRecord
2
BYLAYER
70
0
0
ENDTAB
0
TABLE
2
LAYER
5
2
100
AcDbSymbolTable
70
2
0
LAYER
5
50
100
AcDbSymbolTableRecord
100
AcDbLayerTableRecord
2
0
70
0
6
CONTINUOUS
0
ENDTAB
0
TABLE
2
STYLE
5
3
100
AcDbSymbolTable
70
1
0
STYLE
5
11
100
AcDbSymbolTableRecord
100
AcDbTextStyleTableRecord
2
STANDARD
70
0
0
ENDTAB
0
TABLE
2
VIEW
5
6
100
AcDbSymbolTable
70
0
0
ENDTAB
0
TABLE
2
UCS
5
7
100
AcDbSymbolTable
70
0
0
ENDTAB
0
TABLE
2
APPID
5
9
100
AcDbSymbolTable
70
2
0
APPID
5
12
100
AcDbSymbolTableRecord
100
AcDbRegAppTableRecord
2
ACAD
70
0
0
ENDTAB
0
TABLE
2
DIMSTYLE
5
A
100
AcDbSymbolTable
70
1
0
ENDTAB
0
TABLE
2
BLOCK_RECORD
5
1
100
AcDbSymbolTable
70
1
0
BLOCK_RECORD
5
1F
100
AcDbSymbolTableRecord
100
AcDbBlockTableRecord
2
*MODEL_SPACE
0
BLOCK_RECORD
5
1B
100
AcDbSymbolTableRecord
100
AcDbBlockTableRecord
2
*PAPER_SPACE
0
ENDTAB
0
ENDSEC
0
SECTION
2
BLOCKS
0
BLOCK
5
20
100
AcDbEntity
100
AcDbBlockBegin
2
*MODEL_SPACE
0
ENDBLK
5
21
100
AcDbEntity
100
AcDbBlockEnd
0
BLOCK
5
1C
100
AcDbEntity
100
AcDbBlockBegin
2
*PAPER_SPACE
0
ENDBLK
5
1D
100
AcDbEntity
100
AcDbBlockEnd
0
ENDSEC
0
SECTION
2
ENTITIES
0
LWPOLYLINE
5
100
100
AcDbEntity
8
0
100
AcDbPolyline
90
4
70
1
43
0.0
10
0.61750000000000027
20
0.3172044057529203
10
0.68250000000000033
20
0.3172044057529203
10
0.68250000000000033
20
0.30720440575292035
10
0.61750000000000027
20
0.3072044057529203
0
LWPOLYLINE
5
101
100
AcDbEntity
8
0
100
AcDbPolyline
90
4
70
1
43
0.0
10
0.51750000000000029
20
0.31720440575292019
10
0.58250000000000035
20
0.31720440575292025
10
0.58250000000000035
20
0.30720440575292024
10
0.51750000000000029
20
0.30720440575292018
0
LWPOLYLINE
5
102
100
AcDbEntity
8
0
100
AcDbPolyline
90
4
70
1
43
0.0
10
0.41750000000000026
20
0.31720440575292008
10
0.48250000000000037
20
0.31720440575292014
10
0.48250000000000037
20
0.30720440575292013
10
0.41750000000000026
20
0.30720440575292013
0
LWPOLYLINE
5
103
100
AcDbEntity
8
0
100
AcDbPolyline
90
4
70
1
43
0.0
10
0.31750000000000028
20
0.31720440575292003
10
0.3825000000000004
20
0.31720440575292008
10
0.3825000000000004
20
0.30720440575292007
10
0.31750000000000028
20
0.30720440575292002
0
LWPOLYLINE
5
104
100
AcDbEntity
8
0
100
AcDbPolyline
90
4
70
1
43
0.0
10
0.21750000000000028
20
0.31720440575291992
10
0.28250000000000036
20
0.31720440575291997
10
0.28250000000000036
20
0.30720440575291996
10
0.21750000000000028
20
0.30720440575291996
0
LWPOLYLINE
5
105
100
AcDbEntity
8
0
100
AcDbPolyline
90
4
70
1
43
0.0
10
0.087499999999998065
20
0.43720440575291974
10
0.11249999999999809
20
0.43720440575291974
10
0.11249999999999809
20
0.41220440575291978
10
0.087499999999998065
20
0.41220440575291978
0
LWPOLYLINE
5
106
100
AcDbEntity
8
0
100
AcDbPolyline
90
4
70
1
43
0.0
10
0.1175000000000003
20
0.31720440575291986
10
0.18250000000000038
20
0.31720440575291986
10
0.18250000000000038
20
0.30720440575291991
10
0.1175000000000003
20
0.30720440575291985
0
LWPOLYLINE
5
107
100
AcDbEntity
8
0
100
AcDbPolyline
90
4
70
1
43
0.0
10
-0.012500000000001923
20
0.43720440575291974
10
0.012499999999998075
20
0.43720440575291974
10
0.012499999999998075
20
0.41220440575291978
10
-0.012500000000001923
20
0.41220440575291978
0
LWPOLYLINE
5
108
100
AcDbEntity
8
0
100
AcDbPolyline
90
4
70
1
43
0.0
10
0.0175000000000003
20
0.31720440575291975
10
0.082500000000000309
20
0.3172044057529198
10
0.082500000000000309
20
0.3072044057529198
10
0.017500000000000304
20
0.30720440575291974
0
LWPOLYLINE
5
109
100
AcDbEntity
8
0
100
AcDbPolyline
90
4
70
1
43
0.0
10
-0.11250000000000192
20
0.43720440575291974
10
-0.087500000000001923
20
0.43720440575291974
10
-0.087500000000001923
20
0.41220440575291978
10
-0.11250000000000192
20
0.41220440575291978
0
LWPOLYLINE
5
110
100
AcDbEntity
8
0
100
AcDbPolyline
90
4
70
1
43
0.0
10
-0.082499999999999699
20
0.31720440575291964
10
-0.017499999999999686
20
0.31720440575291969
10
-0.017499999999999689
20
0.30720440575291974
10
-0.082499999999999699
20
0.30720440575291968
0
LWPOLYLINE
5
111
100
AcDbEntity
8
0
100
AcDbPolyline
90
4
70
1
43
0.0
10
-0.18249999999999969
20
0.31720440575291958
10
-0.11749999999999969
20
0.31720440575291964
10
-0.11749999999999969
20
0.30720440575291963
10
-0.18249999999999969
20
0.30720440575291957
0
LWPOLYLINE
5
112
100
AcDbEntity
8
0
100
AcDbPolyline
90
4
70
1
43
0.0
10
-0.2824999999999997
20
0.31720440575291947
10
-0.21749999999999967
20
0.31720440575291953
10
-0.21749999999999967
20
0.30720440575291952
10
-0.2824999999999997
20
0.30720440575291952
0
LWPOLYLINE
5
113
100
AcDbEntity
8
0
100
AcDbPolyline
90
4
70
1
43
0.0
10
-0.38249999999999973
20
0.31720440575291942
10
-0.31749999999999973
20
0.31720440575291947
10
-0.31749999999999973
20
0.30720440575291946
10
-0.38249999999999973
20
0.30720440575291941
0
LWPOLYLINE
5
114
100
AcDbEntity
8
0
100
AcDbPolyline
90
4
70
1
43
0.0
10
-0.48249999999999976
20
0.31720440575291931
10
-0.41749999999999965
20
0.31720440575291936
10
-0.41749999999999965
20
0.30720440575291935
10
-0.48249999999999976
20
0.30720440575291935
0
LWPOLYLINE
5
115
100
AcDbEntity
8
0
100
AcDbPolyline
90
4
70
1
43
0.0
10
-0.5824999999999998
20
0.31720440575291925
10
-0.51749999999999963
20
0.31720440575291925
10
-0.51749999999999963
20
0.3072044057529193
10
-0.58249999999999968
20
0.30720440575291924
0
LWPOLYLINE
5
116
100
AcDbEntity
8
0
100
AcDbPolyline
90
4
70
1
43
0.0
10
-0.68249999999999966
20
0.31720440575291914
10
-0.6174999999999996
20
0.31720440575291919
10
-0.6174999999999996
20
0.30720440575291919
10
-0.68249999999999966
20
0.30720440575291913
0
LWPOLYLINE
5
117
100
AcDbEntity
8
0
100
AcDbPolyline
90
4
70
1
43
0.0
10
-0.68249999999999944
20
0.022204405752919251
10
-0.61749999999999949
20
0.02220440575291931
10
-0.61749999999999938
20
0.012204405752919319
10
-0.68249999999999944
20
0.012204405752919261
0
LWPOLYLINE
5
118
100
AcDbEntity
8
0
100
AcDbPolyline
90
4
70
1
43
0.0
10
-0.58249999999999935
20
0.022204405752919338
10
-0.51749999999999952
20
0.022204405752919393
10
-0.51749999999999952
20
0.012204405752919404
10
-0.58249999999999935
20
0.01220440575291935
0
LWPOLYLINE
5
119
100
AcDbEntity
8
0
100
AcDbPolyline
90
4
70
1
43
0.0
10
-0.48249999999999943
20
0.022204405752919425
10
-0.41749999999999948
20
0.02220440575291948
10
-0.41749999999999948
20
0.01220440575291949
10
-0.48249999999999943
20
0.012204405752919433
0
LWPOLYLINE
5
120
100
AcDbEntity
8
0
100
AcDbPolyline
90
4
70
1
43
0.0
10
-0.38249999999999945
20
0.022204405752919511
10
-0.31749999999999945
20
0.022204405752919567
10
-0.31749999999999945
20
0.012204405752919575
10
-0.38249999999999945
20
0.012204405752919522
0
LWPOLYLINE
5
121
100
AcDbEntity
8
0
100
AcDbPolyline
90
4
70
1
43
0.0
10
-0.28249999999999942
20
0.022204405752919595
10
-0.21749999999999942
20
0.022204405752919654
10
-0.21749999999999942
20
0.012204405752919664
10
-0.28249999999999942
20
0.012204405752919607
0
LWPOLYLINE
5
122
100
AcDbEntity
8
0
100
AcDbPolyline
90
4
70
1
43
0.0
10
-0.18249999999999941
20
0.022204405752919685
10
-0.11749999999999942
20
0.022204405752919737
10
-0.11749999999999942
20
0.012204405752919747
10
-0.18249999999999941
20
0.012204405752919693
0
LWPOLYLINE
5
123
100
AcDbEntity
8
0
100
AcDbPolyline
90
4
70
1
43
0.0
10
-0.082499999999999435
20
0.022204405752919768
10
-0.017499999999999422
20
0.022204405752919827
10
-0.017499999999999426
20
0.012204405752919836
10
-0.082499999999999435
20
0.012204405752919778
0
LWPOLYLINE
5
124
100
AcDbEntity
8
0
100
AcDbPolyline
90
4
70
1
43
0.0
10
0.017500000000000564
20
0.022204405752919855
10
0.082500000000000573
20
0.02220440575291991
10
0.082500000000000573
20
0.012204405752919921
10
0.017500000000000564
20
0.012204405752919865
0
LWPOLYLINE
5
125
100
AcDbEntity
8
0
100
AcDbPolyline
90
4
70
1
43
0.0
10
0.11750000000000047
20
0.022204405752919942
10
0.18250000000000055
20
0.022204405752919997
10
0.18250000000000055
20
0.012204405752920007
10
0.11750000000000047
20
0.01220440575291995
0
LWPOLYLINE
5
126
100
AcDbEntity
8
0
100
AcDbPolyline
90
4
70
1
43
0.0
10
0.21750000000000047
20
0.022204405752920028
10
0.28250000000000053
20
0.022204405752920084
10
0.28250000000000053
20
0.012204405752920092
10
0.21750000000000047
20
0.012204405752920037
0
LWPOLYLINE
5
127
100
AcDbEntity
8
0
100
AcDbPolyline
90
4
70
1
43
0.0
10
0.31750000000000045
20
0.022204405752920112
10
0.38250000000000056
20
0.022204405752920171
10
0.38250000000000056
20
0.012204405752920179
10
0.31750000000000045
20
0.012204405752920122
0
LWPOLYLINE
5
128
100
AcDbEntity
8
0
100
AcDbPolyline
90
4
70
1
43
0.0
10
0.41750000000000043
20
0.022204405752920202
10
0.48250000000000054
20
0.022204405752920254
10
0.48250000000000054
20
0.012204405752920264
10
0.41750000000000043
20
0.01220440575292021
0
LWPOLYLINE
5
129
100
AcDbEntity
8
0
100
AcDbPolyline
90
4
70
1
43
0.0
10
0.5175000000000004
20
0.022204405752920285
10
0.58250000000000057
20
0.022204405752920341
10
0.58250000000000057
20
0.012204405752920351
10
0.5175000000000004
20
0.012204405752920294
0
LWPOLYLINE
5
130
100
AcDbEntity
8
0
100
AcDbPolyline
90
4
70
1
43
0.0
10
0.61750000000000038
20
0.022204405752920372
10
0.68250000000000055
20
0.022204405752920427
10
0.68250000000000055
20
0.012204405752920436
10
0.61750000000000038
20
0.012204405752920382
0
LWPOLYLINE
5
131
100
AcDbEntity
8
0
100
AcDbPolyline
90
4
70
1
43
0.0
10
0.68805140092836425
20
-0.16220494442556083
10
0.68805140092836414
20
-0.18720494442556085
10
0.66305140092836412
20
-0.18720494442556074
10
0.66305140092836423
20
-0.16220494442556074
0
LWPOLYLINE
5
132
100
AcDbEntity
8
0
100
AcDbPolyline
90
4
70
1
43
0.0
10
0.58805140092836428
20
-0.16220494442556052
10
0.58805140092836417
20
-0.18720494442556054
10
0.56305140092836414
20
-0.18720494442556043
10
0.56305140092836414
20
-0.16220494442556044
0
LWPOLYLINE
5
133
100
AcDbEntity
8
0
100
AcDbPolyline
90
4
70
1
43
0.0
10
0.48805140092836424
20
-0.16220494442556022
10
0.48805140092836413
20
-0.18720494442556021
10
0.46305140092836422
20
-0.18720494442556013
10
0.46305140092836422
20
-0.16220494442556013
0
LWPOLYLINE
5
134
100
AcDbEntity
8
0
100
AcDbPolyline
90
4
70
1
43
0.0
10
0.66539777061647865
20
-0.55263676437076037
10
0.69039777061647856
20
-0.55263676437076037
10
0.69039777061647856
20
-0.57763676437076039
10
0.66539777061647865
20
-0.57763676437076039
0
LWPOLYLINE
5
135
100
AcDbEntity
8
0
100
AcDbPolyline
90
4
70
1
43
0.0
10
0.56539777061647867
20
-0.55263676437076037
10
0.59039777061647858
20
-0.55263676437076037
10
0.59039777061647858
20
-0.57763676437076039
10
0.56539777061647867
20
-0.57763676437076039
0
LWPOLYLINE
5
136
100
AcDbEntity
8
0
100
AcDbPolyline
90
4
70
1
43
0.0
10
0.29374109375602764
20
-0.14335691135959269
10
0.29374109375602764
20
-0.11835691135959273
10
0.31874109375602766
20
-0.11835691135959273
10
0.31874109375602766
20
-0.14335691135959275
0
LWPOLYLINE
5
137
100
AcDbEntity
8
0
100
AcDbPolyline
90
4
70
1
43
0.0
10
0.29374109375602758
20
-0.2433569113595927
10
0.29374109375602764
20
-0.2183569113595927
10
0.3187410937560276
20
-0.21835691135959276
10
0.31874109375602755
20
-0.24335691135959275
0
LWPOLYLINE
5
138
100
AcDbEntity
8
0
100
AcDbPolyline
90
4
70
1
43
0.0
10
0.1374999999999999
20
-0.25279559424708042
10
0.16249999999999989
20
-0.25279559424708042
10
0.16249999999999989
20
-0.27779559424708045
10
0.1374999999999999
20
-0.27779559424708045
0
LWPOLYLINE
5
139
100
AcDbEntity
8
0
100
AcDbPolyline
90
4
70
1
43
0.0
10
0.037499999999999908
20
-0.25279559424708042
10
0.06249999999999991
20
-0.25279559424708042
10
0.06249999999999991
20
-0.27779559424708045
10
0.037499999999999908
20
-0.27779559424708045
0
LWPOLYLINE
5
140
100
AcDbEntity
8
0
100
AcDbPolyline
90
4
70
1
43
0.0
10
-0.062500000000000083
20
-0.25279559424708042
10
-0.037500000000000082
20
-0.25279559424708042
10
-0.037500000000000082
20
-0.27779559424708045
10
-0.062500000000000083
20
-0.27779559424708045
0
LWPOLYLINE
5
141
100
AcDbEntity
8
0
100
AcDbPolyline
90
4
70
1
43
0.0
10
-0.16250000000000009
20
-0.25279559424708042
10
-0.13750000000000007
20
-0.25279559424708042
10
-0.13750000000000007
20
-0.27779559424708045
10
-0.16250000000000009
20
-0.27779559424708045
0
LWPOLYLINE
5
142
100
AcDbEntity
8
0
100
AcDbPolyline
90
6
70
1
43
0.0
10
0.89249999999999996
20
-0.65279559424708244
10
-0.89250000000000129
20
-0.65279559424708222
10
-0.89250000000000151
20
0.31285840575291934
10
-0.47004800000000141
20
0.49970440575292069
10
0.4700479999999983
20
0.4997044057529233
10
0.89249999999999963
20
0.31285840575292451
0
LWPOLYLINE
5
143
100
AcDbEntity
8
0
100
AcDbPolyline
90
6
70
1
43
0.0
10
0.89249999999999974
20
0.31285840575292451
10
0.89250000000000007
20
-0.65279559424708244
10
-0.89250000000000118
20
-0.65279559424708222
10
-0.89250000000000151
20
0.31285840575291946
10
-0.47004800000000141
20
0.49970440575292069
10
0.47004799999999847
20
0.4997044057529233
0
ENDSEC
0
SECTION
2
OBJECTS
0
DICTIONARY
5
C
100
AcDbDictionary
3
ACAD_GROUP
350
D
3
ACAD_MLINESTYLE
350
17
0
DICTIONARY
5
D
100
AcDbDictionary
0
DICTIONARY
5
1A
330
C
100
AcDbDictionary
0
DICTIONARY
5
17
100
AcDbDictionary
0
ENDSEC
0
EOF
