0
SECTION
2
HEADER
9
$INSUNITS
70
1
9
$ACADVER
1
AC1014
9
$HANDSEED
5
FFFF
0
ENDSEC
0
SECTION
2
TABLES
0
TABLE
2
VPORT
5
8
100
AcDbSymbolTable
0
ENDTAB
0
TABLE
2
LTYPE
5
5
100
AcDbSymbolTable
0
LTYPE
5
14
100
AcDbSymbolTableRecord
100
AcDbLinetypeTableRecord
2
BYBLOCK
70
0
0
LTYPE
5
15
100
AcDbSymbolTableRecord
100
AcDbLinetypeTableRecord
2
BYLAYER
70
0
0
ENDTAB
0
TABLE
2
LAYER
5
2
100
AcDbSymbolTable
70
2
0
LAYER
5
50
100
AcDbSymbolTableRecord
100
AcDbLayerTableRecord
2
0
70
0
6
CONTINUOUS
0
ENDTAB
0
TABLE
2
STYLE
5
3
100
AcDbSymbolTable
70
1
0
STYLE
5
11
100
AcDbSymbolTableRecord
100
AcDbTextStyleTableRecord
2
STANDARD
70
0
0
ENDTAB
0
TABLE
2
VIEW
5
6
100
AcDbSymbolTable
70
0
0
ENDTAB
0
TABLE
2
UCS
5
7
100
AcDbSymbolTable
70
0
0
ENDTAB
0
TABLE
2
APPID
5
9
100
AcDbSymbolTable
70
2
0
APPID
5
12
100
AcDbSymbolTableRecord
100
AcDbRegAppTableRecord
2
ACAD
70
0
0
ENDTAB
0
TABLE
2
DIMSTYLE
5
A
100
AcDbSymbolTable
70
1
0
ENDTAB
0
TABLE
2
BLOCK_RECORD
5
1
100
AcDbSymbolTable
70
1
0
BLOCK_RECORD
5
1F
100
AcDbSymbolTableRecord
100
AcDbBlockTableRecord
2
*MODEL_SPACE
0
BLOCK_RECORD
5
1B
100
AcDbSymbolTableRecord
100
AcDbBlockTableRecord
2
*PAPER_SPACE
0
ENDTAB
0
ENDSEC
0
SECTION
2
BLOCKS
0
BLOCK
5
20
100
AcDbEntity
100
AcDbBlockBegin
2
*MODEL_SPACE
0
ENDBLK
5
21
100
AcDbEntity
100
AcDbBlockEnd
0
BLOCK
5
1C
100
AcDbEntity
100
AcDbBlockBegin
2
*PAPER_SPACE
0
ENDBLK
5
1D
100
AcDbEntity
100
AcDbBlockEnd
0
ENDSEC
0
SECTION
2
ENTITIES
0
LWPOLYLINE
5
100
100
AcDbEntity
8
0
100
AcDbPolyline
90
4
70
1
43
0.0
10
-0.69249999999999956
20
0.30470440575291896
10
0.69249999999999945
20
0.30470440575292018
10
0.69249999999999956
20
0.024704405752920423
10
-0.69249999999999945
20
0.024704405752919208
0
LINE
5
101
100
AcDbEntity
8
0
100
AcDbLine
10
-1.6155309979010451e-15
20
0.49970440575291908
30
0
11
1.6943337498929809e-15
21
-0.65279559424708233
31
0
0
LINE
5
102
100
AcDbEntity
8
0
100
AcDbLine
10
0.89249999999999996
20
2.2841761978610599e-15
30
0
11
-0.89249999999999996
21
-2.2841761978610599e-15
31
0
0
LINE
5
103
100
AcDbEntity
8
0
100
AcDbLine
10
-0.89250000000000118
20
-0.65279559424708222
30
0
11
0.89249999999999996
21
-0.65279559424708244
31
0
0
LINE
5
104
100
AcDbEntity
8
0
100
AcDbLine
10
0.89249999999999996
20
-0.65279559424708244
30
0
11
0.89249999999999963
21
0.31285855305848564
31
0
0
LINE
5
105
100
AcDbEntity
8
0
100
AcDbLine
10
0.89249999999999963
20
0.31285855305848564
30
0
11
0.47004810007504966
21
0.49970440575291847
31
0
0
LINE
5
106
100
AcDbEntity
8
0
100
AcDbLine
10
0.47004810007504966
20
0.49970440575291847
30
0
11
-0.47004810007505354
21
0.49970440575291969
31
0
0
LINE
5
107
100
AcDbEntity
8
0
100
AcDbLine
10
-0.89250000000000118
20
-0.65279559424708222
30
0
11
-0.89249999999999996
21
0.31285855305848231
31
0
0
LINE
5
108
100
AcDbEntity
8
0
100
AcDbLine
10
-0.89250000000000129
20
0.31285855305848154
30
0
11
-0.47004810007505343
21
0.49970440575291497
31
0
0
ARC
5
109
100
AcDbEntity
8
0
100
AcDbCircle
10
0.17750000000000116
20
-0.52779559424708244
30
8.7419135797256413e-17
40
0.12499999999999994
210
0
220
0
230
1
100
AcDbArc
50
-90
51
0
0
LINE
5
110
100
AcDbEntity
8
0
100
AcDbLine
10
0.30250000000000105
20
-0.4652955942470825
30
1.7483827159451283e-16
11
0.30250000000000105
21
-0.52779559424708244
31
1.7483827159451283e-16
0
ARC
5
111
100
AcDbEntity
8
0
100
AcDbCircle
10
0.17750000000000116
20
-0.4652955942470825
30
8.7419135797256413e-17
40
0.1249999999999999
210
0
220
0
230
1
100
AcDbArc
50
0
51
90.000000000000014
0
LINE
5
112
100
AcDbEntity
8
0
100
AcDbLine
10
-0.82249999999999857
20
-0.34029559424708289
30
-1.7483827159451283e-16
11
0.17750000000000102
21
-0.34029559424708267
31
-1.7483827159451278e-16
0
ARC
5
113
100
AcDbEntity
8
0
100
AcDbCircle
10
-0.82249999999999834
20
-0.46529559424708289
30
-1.7483827159451283e-16
40
0.12500000000000003
210
0
220
0
230
1
100
AcDbArc
50
90.000000000000099
51
180
0
LINE
5
114
100
AcDbEntity
8
0
100
AcDbLine
10
-0.94749999999999845
20
-0.52779559424708278
30
-1.7483827159451283e-16
11
-0.94749999999999845
21
-0.46529559424708278
31
-1.7483827159451283e-16
0
ARC
5
115
100
AcDbEntity
8
0
100
AcDbCircle
10
-0.82249999999999834
20
-0.52779559424708256
30
-1.7483827159451283e-16
40
0.12500000000000011
210
0
220
0
230
1
100
AcDbArc
50
180
51
269.99999999999989
0
LINE
5
116
100
AcDbEntity
8
0
100
AcDbLine
10
0.17750000000000113
20
-0.65279559424708233
30
0
11
-0.82249999999999834
21
-0.65279559424708256
31
-3.8821894941978924e-32
0
LWPOLYLINE
5
117
100
AcDbEntity
8
0
100
AcDbPolyline
90
4
70
1
43
0.0
10
0.16249999999999987
20
-0.27779559424708056
10
0.13749999999999987
20
-0.27779559424708056
10
0.13749999999999987
20
-0.25279559424708048
10
0.16249999999999987
20
-0.25279559424708048
0
LWPOLYLINE
5
118
100
AcDbEntity
8
0
100
AcDbPolyline
90
4
70
1
43
0.0
10
0.062499999999999889
20
-0.27779559424708056
10
0.037499999999999881
20
-0.27779559424708056
10
0.037499999999999888
20
-0.25279559424708048
10
0.062499999999999889
20
-0.25279559424708048
0
LWPOLYLINE
5
119
100
AcDbEntity
8
0
100
AcDbPolyline
90
4
70
1
43
0.0
10
-0.03750000000000011
20
-0.27779559424708056
10
-0.062500000000000111
20
-0.27779559424708056
10
-0.062500000000000111
20
-0.25279559424708048
10
-0.03750000000000011
20
-0.25279559424708048
0
LWPOLYLINE
5
120
100
AcDbEntity
8
0
100
AcDbPolyline
90
4
70
1
43
0.0
10
-0.13750000000000009
20
-0.27779559424708056
10
-0.16250000000000009
20
-0.27779559424708056
10
-0.16250000000000009
20
-0.25279559424708048
10
-0.13750000000000009
20
-0.25279559424708048
0
LINE
5
121
100
AcDbEntity
8
0
100
AcDbLine
10
0.80449999999999988
20
0.4997044057529198
30
0
11
0.17949999999999988
21
0.4997044057529198
31
1.8781499160616201e-17
0
LINE
5
122
100
AcDbEntity
8
0
100
AcDbLine
10
-0.17949999999999991
20
0.4997044057529198
30
0
11
-0.80449999999999988
21
0.4997044057529198
31
1.8781499160616222e-17
0
LWPOLYLINE
5
123
100
AcDbEntity
8
0
100
AcDbPolyline
90
4
70
1
43
0.0
10
0.68805140092836425
20
-0.16220494442556083
10
0.68805140092836414
20
-0.18720494442556085
10
0.66305140092836412
20
-0.18720494442556074
10
0.66305140092836423
20
-0.16220494442556074
0
LWPOLYLINE
5
124
100
AcDbEntity
8
0
100
AcDbPolyline
90
4
70
1
43
0.0
10
0.58805140092836428
20
-0.16220494442556052
10
0.58805140092836417
20
-0.18720494442556054
10
0.56305140092836414
20
-0.18720494442556043
10
0.56305140092836414
20
-0.16220494442556044
0
LWPOLYLINE
5
125
100
AcDbEntity
8
0
100
AcDbPolyline
90
4
70
1
43
0.0
10
0.48805140092836424
20
-0.16220494442556022
10
0.48805140092836413
20
-0.18720494442556021
10
0.46305140092836422
20
-0.18720494442556013
10
0.46305140092836422
20
-0.16220494442556013
0
LWPOLYLINE
5
126
100
AcDbEntity
8
0
100
AcDbPolyline
90
4
70
1
43
0.0
10
0.66539777061647865
20
-0.55263676437076037
10
0.69039777061647856
20
-0.55263676437076037
10
0.69039777061647856
20
-0.57763676437076039
10
0.66539777061647865
20
-0.57763676437076039
0
LWPOLYLINE
5
127
100
AcDbEntity
8
0
100
AcDbPolyline
90
4
70
1
43
0.0
10
0.56539777061647867
20
-0.55263676437076037
10
0.59039777061647858
20
-0.55263676437076037
10
0.59039777061647858
20
-0.57763676437076039
10
0.56539777061647867
20
-0.57763676437076039
0
LWPOLYLINE
5
128
100
AcDbEntity
8
0
100
AcDbPolyline
90
4
70
1
43
0.0
10
0.29374109375602764
20
-0.14335691135959269
10
0.29374109375602764
20
-0.11835691135959273
10
0.31874109375602766
20
-0.11835691135959273
10
0.31874109375602766
20
-0.14335691135959275
0
LWPOLYLINE
5
129
100
AcDbEntity
8
0
100
AcDbPolyline
90
4
70
1
43
0.0
10
0.29374109375602758
20
-0.2433569113595927
10
0.29374109375602764
20
-0.2183569113595927
10
0.3187410937560276
20
-0.21835691135959276
10
0.31874109375602755
20
-0.24335691135959275
0
LWPOLYLINE
5
130
100
AcDbEntity
8
0
100
AcDbPolyline
90
4
70
1
43
0.0
10
0.087499999999998065
20
0.43720440575291974
10
0.11249999999999809
20
0.43720440575291974
10
0.11249999999999809
20
0.41220440575291978
10
0.087499999999998065
20
0.41220440575291978
0
LWPOLYLINE
5
131
100
AcDbEntity
8
0
100
AcDbPolyline
90
4
70
1
43
0.0
10
-0.012500000000001923
20
0.43720440575291974
10
0.012499999999998075
20
0.43720440575291974
10
0.012499999999998075
20
0.41220440575291978
10
-0.012500000000001923
20
0.41220440575291978
0
LWPOLYLINE
5
132
100
AcDbEntity
8
0
100
AcDbPolyline
90
4
70
1
43
0.0
10
-0.11250000000000192
20
0.43720440575291974
10
-0.087500000000001923
20
0.43720440575291974
10
-0.087500000000001923
20
0.41220440575291978
10
-0.11250000000000192
20
0.41220440575291978
0
LWPOLYLINE
5
133
100
AcDbEntity
8
0
100
AcDbPolyline
90
4
70
1
43
0.0
10
-0.68249999999999966
20
0.31720440575291914
10
-0.6174999999999996
20
0.31720440575291919
10
-0.6174999999999996
20
0.30720440575291919
10
-0.68249999999999966
20
0.30720440575291913
0
LWPOLYLINE
5
134
100
AcDbEntity
8
0
100
AcDbPolyline
90
4
70
1
43
0.0
10
-0.5824999999999998
20
0.31720440575291925
10
-0.51749999999999963
20
0.31720440575291925
10
-0.51749999999999963
20
0.3072044057529193
10
-0.58249999999999968
20
0.30720440575291924
0
LWPOLYLINE
5
135
100
AcDbEntity
8
0
100
AcDbPolyline
90
4
70
1
43
0.0
10
-0.38249999999999973
20
0.31720440575291942
10
-0.31749999999999973
20
0.31720440575291947
10
-0.31749999999999973
20
0.30720440575291946
10
-0.38249999999999973
20
0.30720440575291941
0
LWPOLYLINE
5
136
100
AcDbEntity
8
0
100
AcDbPolyline
90
4
70
1
43
0.0
10
-0.48249999999999976
20
0.31720440575291931
10
-0.41749999999999965
20
0.31720440575291936
10
-0.41749999999999965
20
0.30720440575291935
10
-0.48249999999999976
20
0.30720440575291935
0
LWPOLYLINE
5
137
100
AcDbEntity
8
0
100
AcDbPolyline
90
4
70
1
43
0.0
10
-0.2824999999999997
20
0.31720440575291947
10
-0.21749999999999967
20
0.31720440575291953
10
-0.21749999999999967
20
0.30720440575291952
10
-0.2824999999999997
20
0.30720440575291952
0
LWPOLYLINE
5
138
100
AcDbEntity
8
0
100
AcDbPolyline
90
4
70
1
43
0.0
10
-0.18249999999999969
20
0.31720440575291958
10
-0.11749999999999969
20
0.31720440575291964
10
-0.11749999999999969
20
0.30720440575291963
10
-0.18249999999999969
20
0.30720440575291957
0
LWPOLYLINE
5
139
100
AcDbEntity
8
0
100
AcDbPolyline
90
4
70
1
43
0.0
10
-0.082499999999999699
20
0.31720440575291964
10
-0.017499999999999686
20
0.31720440575291969
10
-0.017499999999999689
20
0.30720440575291974
10
-0.082499999999999699
20
0.30720440575291968
0
LWPOLYLINE
5
140
100
AcDbEntity
8
0
100
AcDbPolyline
90
4
70
1
43
0.0
10
0.0175000000000003
20
0.31720440575291975
10
0.082500000000000309
20
0.3172044057529198
10
0.082500000000000309
20
0.3072044057529198
10
0.017500000000000304
20
0.30720440575291974
0
LWPOLYLINE
5
141
100
AcDbEntity
8
0
100
AcDbPolyline
90
4
70
1
43
0.0
10
0.1175000000000003
20
0.31720440575291986
10
0.18250000000000038
20
0.31720440575291986
10
0.18250000000000038
20
0.30720440575291991
10
0.1175000000000003
20
0.30720440575291985
0
LWPOLYLINE
5
142
100
AcDbEntity
8
0
100
AcDbPolyline
90
4
70
1
43
0.0
10
0.21750000000000028
20
0.31720440575291992
10
0.28250000000000036
20
0.31720440575291997
10
0.28250000000000036
20
0.30720440575291996
10
0.21750000000000028
20
0.30720440575291996
0
LWPOLYLINE
5
143
100
AcDbEntity
8
0
100
AcDbPolyline
90
4
70
1
43
0.0
10
0.31750000000000028
20
0.31720440575292003
10
0.3825000000000004
20
0.31720440575292008
10
0.3825000000000004
20
0.30720440575292007
10
0.31750000000000028
20
0.30720440575292002
0
LWPOLYLINE
5
144
100
AcDbEntity
8
0
100
AcDbPolyline
90
4
70
1
43
0.0
10
0.41750000000000026
20
0.31720440575292008
10
0.48250000000000037
20
0.31720440575292014
10
0.48250000000000037
20
0.30720440575292013
10
0.41750000000000026
20
0.30720440575292013
0
LWPOLYLINE
5
145
100
AcDbEntity
8
0
100
AcDbPolyline
90
4
70
1
43
0.0
10
0.51750000000000029
20
0.31720440575292019
10
0.58250000000000035
20
0.31720440575292025
10
0.58250000000000035
20
0.30720440575292024
10
0.51750000000000029
20
0.30720440575292018
0
LWPOLYLINE
5
146
100
AcDbEntity
8
0
100
AcDbPolyline
90
4
70
1
43
0.0
10
0.61750000000000027
20
0.3172044057529203
10
0.68250000000000033
20
0.3172044057529203
10
0.68250000000000033
20
0.30720440575292035
10
0.61750000000000027
20
0.3072044057529203
0
LWPOLYLINE
5
147
100
AcDbEntity
8
0
100
AcDbPolyline
90
4
70
1
43
0.0
10
-0.68249999999999944
20
0.022204405752919251
10
-0.61749999999999949
20
0.02220440575291931
10
-0.61749999999999938
20
0.012204405752919319
10
-0.68249999999999944
20
0.012204405752919261
0
LWPOLYLINE
5
148
100
AcDbEntity
8
0
100
AcDbPolyline
90
4
70
1
43
0.0
10
-0.58249999999999935
20
0.022204405752919338
10
-0.51749999999999952
20
0.022204405752919393
10
-0.51749999999999952
20
0.012204405752919404
10
-0.58249999999999935
20
0.01220440575291935
0
LWPOLYLINE
5
149
100
AcDbEntity
8
0
100
AcDbPolyline
90
4
70
1
43
0.0
10
-0.48249999999999943
20
0.022204405752919425
10
-0.41749999999999948
20
0.02220440575291948
10
-0.41749999999999948
20
0.01220440575291949
10
-0.48249999999999943
20
0.012204405752919433
0
LWPOLYLINE
5
150
100
AcDbEntity
8
0
100
AcDbPolyline
90
4
70
1
43
0.0
10
-0.38249999999999945
20
0.022204405752919511
10
-0.31749999999999945
20
0.022204405752919567
10
-0.31749999999999945
20
0.012204405752919575
10
-0.38249999999999945
20
0.012204405752919522
0
LWPOLYLINE
5
151
100
AcDbEntity
8
0
100
AcDbPolyline
90
4
70
1
43
0.0
10
-0.28249999999999942
20
0.022204405752919595
10
-0.21749999999999942
20
0.022204405752919654
10
-0.21749999999999942
20
0.012204405752919664
10
-0.28249999999999942
20
0.012204405752919607
0
LWPOLYLINE
5
152
100
AcDbEntity
8
0
100
AcDbPolyline
90
4
70
1
43
0.0
10
-0.18249999999999941
20
0.022204405752919685
10
-0.11749999999999942
20
0.022204405752919737
10
-0.11749999999999942
20
0.012204405752919747
10
-0.18249999999999941
20
0.012204405752919693
0
LWPOLYLINE
5
153
100
AcDbEntity
8
0
100
AcDbPolyline
90
4
70
1
43
0.0
10
-0.082499999999999435
20
0.022204405752919768
10
-0.017499999999999422
20
0.022204405752919827
10
-0.017499999999999426
20
0.012204405752919836
10
-0.082499999999999435
20
0.012204405752919778
0
LWPOLYLINE
5
154
100
AcDbEntity
8
0
100
AcDbPolyline
90
4
70
1
43
0.0
10
0.017500000000000564
20
0.022204405752919855
10
0.082500000000000573
20
0.02220440575291991
10
0.082500000000000573
20
0.012204405752919921
10
0.017500000000000564
20
0.012204405752919865
0
LWPOLYLINE
5
155
100
AcDbEntity
8
0
100
AcDbPolyline
90
4
70
1
43
0.0
10
0.11750000000000047
20
0.022204405752919942
10
0.18250000000000055
20
0.022204405752919997
10
0.18250000000000055
20
0.012204405752920007
10
0.11750000000000047
20
0.01220440575291995
0
LWPOLYLINE
5
156
100
AcDbEntity
8
0
100
AcDbPolyline
90
4
70
1
43
0.0
10
0.21750000000000047
20
0.022204405752920028
10
0.28250000000000053
20
0.022204405752920084
10
0.28250000000000053
20
0.012204405752920092
10
0.21750000000000047
20
0.012204405752920037
0
LWPOLYLINE
5
157
100
AcDbEntity
8
0
100
AcDbPolyline
90
4
70
1
43
0.0
10
0.31750000000000045
20
0.022204405752920112
10
0.38250000000000056
20
0.022204405752920171
10
0.38250000000000056
20
0.012204405752920179
10
0.31750000000000045
20
0.012204405752920122
0
LWPOLYLINE
5
158
100
AcDbEntity
8
0
100
AcDbPolyline
90
4
70
1
43
0.0
10
0.41750000000000043
20
0.022204405752920202
10
0.48250000000000054
20
0.022204405752920254
10
0.48250000000000054
20
0.012204405752920264
10
0.41750000000000043
20
0.01220440575292021
0
LWPOLYLINE
5
159
100
AcDbEntity
8
0
100
AcDbPolyline
90
4
70
1
43
0.0
10
0.5175000000000004
20
0.022204405752920285
10
0.58250000000000057
20
0.022204405752920341
10
0.58250000000000057
20
0.012204405752920351
10
0.5175000000000004
20
0.012204405752920294
0
LWPOLYLINE
5
160
100
AcDbEntity
8
0
100
AcDbPolyline
90
4
70
1
43
0.0
10
0.61750000000000038
20
0.022204405752920372
10
0.68250000000000055
20
0.022204405752920427
10
0.68250000000000055
20
0.012204405752920436
10
0.61750000000000038
20
0.012204405752920382
0
LINE
5
161
100
AcDbEntity
8
0
100
AcDbLine
10
0.68250000000000033
20
0.3172044057529203
30
0
11
0.61750000000000027
21
0.3072044057529203
31
-4.6482523320654457e-19
0
LINE
5
162
100
AcDbEntity
8
0
100
AcDbLine
10
0.58250000000000035
20
0.31720440575292025
30
0
11
0.51750000000000029
21
0.30720440575292018
31
-4.6482523320654457e-19
0
LINE
5
163
100
AcDbEntity
8
0
100
AcDbLine
10
0.48250000000000037
20
0.31720440575292014
30
8.7419135797256413e-17
11
0.41750000000000026
21
0.30720440575292013
31
-4.6482523320654457e-19
0
LINE
5
164
100
AcDbEntity
8
0
100
AcDbLine
10
0.3825000000000004
20
0.31720440575292008
30
0
11
0.31750000000000028
21
0.30720440575292002
31
-4.6482523320654457e-19
0
LINE
5
165
100
AcDbEntity
8
0
100
AcDbLine
10
0.28250000000000036
20
0.31720440575291997
30
0
11
0.21750000000000028
21
0.30720440575291996
31
-4.6482523320654457e-19
0
LINE
5
166
100
AcDbEntity
8
0
100
AcDbLine
10
0.18250000000000038
20
0.31720440575291986
30
0
11
0.1175000000000003
21
0.30720440575291985
31
-4.6482523320654457e-19
0
LINE
5
167
100
AcDbEntity
8
0
100
AcDbLine
10
0.082500000000000309
20
0.3172044057529198
30
0
11
0.017500000000000304
21
0.30720440575291974
31
-4.6482523320654457e-19
0
LINE
5
168
100
AcDbEntity
8
0
100
AcDbLine
10
-0.017499999999999686
20
0.31720440575291969
30
0
11
-0.082499999999999699
21
0.30720440575291968
31
-4.6482523320654457e-19
0
LINE
5
169
100
AcDbEntity
8
0
100
AcDbLine
10
-0.11749999999999969
20
0.31720440575291964
30
0
11
-0.18249999999999969
21
0.30720440575291957
31
-4.6482523320654457e-19
0
LINE
5
170
100
AcDbEntity
8
0
100
AcDbLine
10
-0.21749999999999967
20
0.31720440575291953
30
8.7419135797256413e-17
11
-0.2824999999999997
21
0.30720440575291952
31
-4.6482523320654457e-19
0
LINE
5
171
100
AcDbEntity
8
0
100
AcDbLine
10
-0.31749999999999973
20
0.31720440575291947
30
0
11
-0.38249999999999973
21
0.30720440575291941
31
-4.6482523320654457e-19
0
LINE
5
172
100
AcDbEntity
8
0
100
AcDbLine
10
0.11249999999999809
20
0.43720440575291974
30
0
11
0.087499999999998065
21
0.41220440575291978
31
-1.1620630830163605e-18
0
LINE
5
173
100
AcDbEntity
8
0
100
AcDbLine
10
0.012499999999998075
20
0.43720440575291974
30
0
11
-0.012500000000001923
21
0.41220440575291978
31
-1.1620630830163605e-18
0
LINE
5
174
100
AcDbEntity
8
0
100
AcDbLine
10
-0.087500000000001923
20
0.43720440575291974
30
0
11
-0.11250000000000192
21
0.41220440575291978
31
-1.1620630830163605e-18
0
LINE
5
175
100
AcDbEntity
8
0
100
AcDbLine
10
0.68250000000000055
20
0.022204405752920427
30
0
11
0.61750000000000038
21
0.012204405752920382
31
-4.6482523320654457e-19
0
LINE
5
176
100
AcDbEntity
8
0
100
AcDbLine
10
0.58250000000000057
20
0.022204405752920341
30
0
11
0.5175000000000004
21
0.012204405752920294
31
-4.6482523320654457e-19
0
LINE
5
177
100
AcDbEntity
8
0
100
AcDbLine
10
0.48250000000000054
20
0.022204405752920254
30
0
11
0.41750000000000043
21
0.01220440575292021
31
-4.6482523320654457e-19
0
LINE
5
178
100
AcDbEntity
8
0
100
AcDbLine
10
0.38250000000000056
20
0.022204405752920171
30
0
11
0.31750000000000045
21
0.012204405752920122
31
-4.6482523320654457e-19
0
LINE
5
179
100
AcDbEntity
8
0
100
AcDbLine
10
0.28250000000000053
20
0.022204405752920084
30
0
11
0.21750000000000047
21
0.012204405752920037
31
-4.6482523320654457e-19
0
LINE
5
180
100
AcDbEntity
8
0
100
AcDbLine
10
0.18250000000000055
20
0.022204405752919997
30
0
11
0.11750000000000047
21
0.01220440575291995
31
-4.6482523320654457e-19
0
LINE
5
181
100
AcDbEntity
8
0
100
AcDbLine
10
0.082500000000000573
20
0.02220440575291991
30
0
11
0.017500000000000564
21
0.012204405752919865
31
-4.6482523320654457e-19
0
LINE
5
182
100
AcDbEntity
8
0
100
AcDbLine
10
-0.017499999999999422
20
0.022204405752919827
30
0
11
-0.082499999999999435
21
0.012204405752919778
31
-4.6482523320654457e-19
0
LINE
5
183
100
AcDbEntity
8
0
100
AcDbLine
10
-0.11749999999999942
20
0.022204405752919737
30
0
11
-0.18249999999999941
21
0.012204405752919693
31
-4.6482523320654457e-19
0
LINE
5
184
100
AcDbEntity
8
0
100
AcDbLine
10
-0.21749999999999942
20
0.022204405752919654
30
0
11
-0.28249999999999942
21
0.012204405752919607
31
-4.6482523320654457e-19
0
LINE
5
185
100
AcDbEntity
8
0
100
AcDbLine
10
-0.31749999999999945
20
0.022204405752919567
30
0
11
-0.38249999999999945
21
0.012204405752919522
31
-4.6482523320654457e-19
0
LINE
5
186
100
AcDbEntity
8
0
100
AcDbLine
10
-0.41749999999999965
20
0.31720440575291936
30
0
11
-0.48249999999999976
21
0.30720440575291935
31
-4.6482523320654457e-19
0
LINE
5
187
100
AcDbEntity
8
0
100
AcDbLine
10
-0.51749999999999963
20
0.31720440575291925
30
0
11
-0.58249999999999968
21
0.30720440575291924
31
-4.6482523320652271e-19
0
LINE
5
188
100
AcDbEntity
8
0
100
AcDbLine
10
-0.6174999999999996
20
0.31720440575291919
30
0
11
-0.68249999999999966
21
0.31720440575291914
31
-1.6229904333125253e-17
0
LINE
5
189
100
AcDbEntity
8
0
100
AcDbLine
10
-0.41749999999999948
20
0.02220440575291948
30
0
11
-0.48249999999999943
21
0.012204405752919433
31
-4.6482523320654457e-19
0
LINE
5
190
100
AcDbEntity
8
0
100
AcDbLine
10
-0.51749999999999952
20
0.022204405752919393
30
0
11
-0.58249999999999935
21
0.01220440575291935
31
-4.6482523320654457e-19
0
LINE
5
191
100
AcDbEntity
8
0
100
AcDbLine
10
-0.61749999999999949
20
0.02220440575291931
30
0
11
-0.68249999999999944
21
0.012204405752919261
31
-4.6482523320654457e-19
0
LINE
5
192
100
AcDbEntity
8
0
100
AcDbLine
10
0.68805140092836425
20
-0.16220494442556083
30
1.1620630830163843e-18
11
0.66305140092836412
21
-0.18720494442556074
31
-1.1620630830163843e-18
0
LINE
5
193
100
AcDbEntity
8
0
100
AcDbLine
10
0.58805140092836428
20
-0.16220494442556052
30
8.8581198880272793e-17
11
0.56305140092836414
21
-0.18720494442556043
31
8.6257072714240021e-17
0
LINE
5
194
100
AcDbEntity
8
0
100
AcDbLine
10
0.48805140092836424
20
-0.16220494442556022
30
1.1620630830163843e-18
11
0.46305140092836422
21
-0.18720494442556013
31
-1.1620630830163624e-18
0
LINE
5
195
100
AcDbEntity
8
0
100
AcDbLine
10
0.31874109375602766
20
-0.11835691135959273
30
1.1620630830163635e-18
11
0.29374109375602764
21
-0.14335691135959269
31
-1.1620630830163616e-18
0
LINE
5
196
100
AcDbEntity
8
0
100
AcDbLine
10
0.3187410937560276
20
-0.21835691135959276
30
1.1620630830163734e-18
11
0.29374109375602758
21
-0.2433569113595927
31
-1.1620630830163734e-18
0
LINE
5
197
100
AcDbEntity
8
0
100
AcDbLine
10
0.16249999999999987
20
-0.25279559424708048
30
3.0329605423421034e-34
11
0.13749999999999987
21
-0.27779559424708056
31
0
0
LINE
5
198
100
AcDbEntity
8
0
100
AcDbLine
10
0.062499999999999889
20
-0.25279559424708048
30
3.0329605423421034e-34
11
0.037499999999999881
21
-0.27779559424708056
31
0
0
LINE
5
199
100
AcDbEntity
8
0
100
AcDbLine
10
-0.03750000000000011
20
-0.25279559424708048
30
3.0329605423421034e-34
11
-0.062500000000000111
21
-0.27779559424708056
31
0
0
LINE
5
200
100
AcDbEntity
8
0
100
AcDbLine
10
-0.13750000000000009
20
-0.25279559424708048
30
3.0329605423421034e-34
11
-0.16250000000000009
21
-0.27779559424708056
31
0
0
LINE
5
201
100
AcDbEntity
8
0
100
AcDbLine
10
0.69039777061647856
20
-0.55263676437076037
30
0
11
0.66539777061647865
21
-0.57763676437076039
31
-1.1620630830163605e-18
0
LINE
5
202
100
AcDbEntity
8
0
100
AcDbLine
10
0.59039777061647858
20
-0.55263676437076037
30
0
11
0.56539777061647867
21
-0.57763676437076039
31
-1.1620630830163605e-18
0
LINE
5
203
100
AcDbEntity
8
0
100
AcDbLine
10
-0.6174999999999996
20
0.31720440575291919
30
0
11
-0.68249999999999966
21
0.30720440575291913
31
-4.6482523320654457e-19
0
ENDSEC
0
SECTION
2
OBJECTS
0
DICTIONARY
5
C
100
AcDbDictionary
3
ACAD_GROUP
350
D
3
ACAD_MLINESTYLE
350
17
0
DICTIONARY
5
D
100
AcDbDictionary
0
DICTIONARY
5
1A
330
C
100
AcDbDictionary
0
DICTIONARY
5
17
100
AcDbDictionary
0
ENDSEC
0
EOF
